<?xml version="1.0" encoding="UTF-8" standalone="no"?>
<svg
   xmlns:dc="http://purl.org/dc/elements/1.1/"
   xmlns:cc="http://creativecommons.org/ns#"
   xmlns:rdf="http://www.w3.org/1999/02/22-rdf-syntax-ns#"
   xmlns:svg="http://www.w3.org/2000/svg"
   xmlns="http://www.w3.org/2000/svg"
   xmlns:xlink="http://www.w3.org/1999/xlink"
   xmlns:sodipodi="http://sodipodi.sourceforge.net/DTD/sodipodi-0.dtd"
   xmlns:inkscape="http://www.inkscape.org/namespaces/inkscape"
   version="1.1"
   width="128"
   height="128"
   viewBox="0 0 128 128"
   overflow="visible"
   enable-background="new 0 0 128 128"
   xml:space="preserve"
   id="svg2"
   sodipodi:version="0.32"
   inkscape:version="0.46"
   sodipodi:docname="nautilus-restart.svg"
   inkscape:output_extension="org.inkscape.output.svg.inkscape"><metadata
   id="metadata93"><rdf:RDF><cc:Work
       rdf:about=""><dc:format>image/svg+xml</dc:format><dc:type
         rdf:resource="http://purl.org/dc/dcmitype/StillImage" /></cc:Work></rdf:RDF></metadata><defs
   id="defs91"><inkscape:perspective
     sodipodi:type="inkscape:persp3d"
     inkscape:vp_x="0 : 64 : 1"
     inkscape:vp_y="0 : 1000 : 0"
     inkscape:vp_z="128 : 64 : 1"
     inkscape:persp3d-origin="64 : 42.666667 : 1"
     id="perspective95" /><radialGradient
     gradientUnits="userSpaceOnUse"
     gradientTransform="matrix(-0.974603,0.79438,-0.474803,-0.582523,74.64944,26.0085)"
     r="11.68304"
     fy="26.358294"
     fx="27.73266"
     cy="30.812386"
     cx="25.501734"
     id="radialGradient2810"
     xlink:href="#linearGradient2800"
     inkscape:collect="always" /><linearGradient
     y2="25.987909"
     x2="25.339285"
     y1="10.541481"
     x1="36.589283"
     gradientUnits="userSpaceOnUse"
     id="linearGradient2234"
     xlink:href="#linearGradient2254"
     inkscape:collect="always" /><linearGradient
     y2="-3.1949208"
     x2="21.066965"
     y1="16.85297"
     x1="26.59787"
     gradientUnits="userSpaceOnUse"
     id="linearGradient2387"
     xlink:href="#linearGradient2246"
     inkscape:collect="always" /><linearGradient
     y2="37.941383"
     x2="35.825676"
     y1="-2.4229071"
     x1="9.8042097"
     gradientTransform="matrix(0.941299,0,0,0.95119,1.512638,1.012529)"
     gradientUnits="userSpaceOnUse"
     id="linearGradient2383"
     xlink:href="#linearGradient2207"
     inkscape:collect="always" /><radialGradient
     r="12.332547"
     fy="8.8713007"
     fx="1.6693171"
     cy="9.6087761"
     cx="2.2106946"
     gradientTransform="matrix(-1.406852,-2.719337e-2,-2.615301e-2,1.353029,28.40827,13.10321)"
     gradientUnits="userSpaceOnUse"
     id="radialGradient2381"
     xlink:href="#linearGradient2193"
     inkscape:collect="always" /><radialGradient
     r="19.622213"
     fy="39.161163"
     fx="25.455845"
     cy="39.161163"
     cx="25.455845"
     gradientTransform="matrix(1,0,0,0.315315,0,26.81305)"
     gradientUnits="userSpaceOnUse"
     id="radialGradient2315"
     xlink:href="#linearGradient3256"
     inkscape:collect="always" /><linearGradient
     inkscape:collect="always"
     id="linearGradient3256"><stop
       style="stop-color:#000000;stop-opacity:1;"
       offset="0"
       id="stop3258" /><stop
       style="stop-color:#000000;stop-opacity:0;"
       offset="1"
       id="stop3260" /></linearGradient><linearGradient
     id="linearGradient2193"><stop
       id="stop2195"
       offset="0"
       style="stop-color:#7c2f03;stop-opacity:1" /><stop
       id="stop2197"
       offset="1"
       style="stop-color:#ff9730;stop-opacity:1" /></linearGradient><linearGradient
     id="linearGradient2207"
     inkscape:collect="always"><stop
       id="stop2209"
       offset="0"
       style="stop-color:#ffffff;stop-opacity:1;" /><stop
       id="stop2211"
       offset="1"
       style="stop-color:white;stop-opacity:0.37642586" /></linearGradient><linearGradient
     id="linearGradient2246"
     inkscape:collect="always"><stop
       id="stop2248"
       offset="0"
       style="stop-color:#ffffff;stop-opacity:1;" /><stop
       id="stop2250"
       offset="1"
       style="stop-color:#ffffff;stop-opacity:0;" /></linearGradient><linearGradient
     id="linearGradient2254"
     inkscape:collect="always"><stop
       id="stop2256"
       offset="0"
       style="stop-color:#8c4104;stop-opacity:1" /><stop
       id="stop2258"
       offset="1"
       style="stop-color:#a04e0b;stop-opacity:0;" /></linearGradient><linearGradient
     id="linearGradient2800"
     inkscape:collect="always"><stop
       id="stop2802"
       offset="0"
       style="stop-color:#7f3104;stop-opacity:0" /><stop
       id="stop2804"
       offset="1"
       style="stop-color:#7f3104;stop-opacity:1" /></linearGradient><inkscape:perspective
     id="perspective39"
     inkscape:persp3d-origin="24 : 16 : 1"
     inkscape:vp_z="48 : 24 : 1"
     inkscape:vp_y="0 : 1000 : 0"
     inkscape:vp_x="0 : 24 : 1"
     sodipodi:type="inkscape:persp3d" /></defs><sodipodi:namedview
   inkscape:window-height="713"
   inkscape:window-width="641"
   inkscape:pageshadow="2"
   inkscape:pageopacity="0.0"
   guidetolerance="10.0"
   gridtolerance="10.0"
   objecttolerance="10.0"
   borderopacity="1.0"
   bordercolor="#666666"
   pagecolor="#ffffff"
   id="base"
   showgrid="false"
   inkscape:zoom="3.859375"
   inkscape:cx="64"
   inkscape:cy="64"
   inkscape:window-x="4"
   inkscape:window-y="45"
   inkscape:current-layer="svg2"
   showguides="true"
   inkscape:guide-bbox="true" />
	<path
   opacity="0.2"
   d="M76,14c-0.553,0-1,0.448-1,1v34c0,0.404,0.244,0.769,0.617,0.924c0.374,0.155,0.804,0.069,1.09-0.217   c0,0,8.8-8.8,9.912-9.912C95.622,46.409,101,56.872,101,68c0,19.299-15.602,35-34.901,35c-0.553,0-1,0.447-1,1v18   c0,0.553,0.447,1,1,1C96.426,123,121,98.327,121,68c0-16.275-7.531-32.033-20.14-42.446c1.293-1.293,9.847-9.847,9.847-9.847   C110.898,15.516,111,15.26,111,15c0-0.129-0.025-0.259-0.076-0.383C110.77,14.244,110.404,14,110,14H76z"
   id="path4" />
	<path
   opacity="0.2"
   d="M54,114c0.553,0,1-0.447,1-1V79c0-0.404-0.244-0.77-0.617-0.924c-0.374-0.154-0.804-0.068-1.09,0.217   c0,0-8.8,8.8-9.912,9.912C34.378,81.591,29,71.129,29,60c0-19.299,15.602-35,34.901-35c0.553,0,1-0.448,1-1V6c0-0.552-0.447-1-1-1   C33.574,5,9,29.673,9,60c0,16.275,7.531,32.033,20.14,42.446c-1.293,1.293-9.847,9.847-9.847,9.847   C19.102,112.484,19,112.74,19,113c0,0.129,0.025,0.259,0.076,0.383C19.23,113.756,19.596,114,20,114H54z"
   id="path6" />
	<path
   opacity="0.2"
   d="M76,13c-1.103,0-2,0.897-2,2v34c0,0.812,0.484,1.537,1.234,1.848c0.75,0.311,1.605,0.14,2.18-0.433   c0,0,7.096-7.095,9.27-9.269C95.02,47.597,100,57.554,100,68c0,18.748-15.208,34-33.901,34c-1.103,0-2,0.896-2,2v18   c0,1.104,0.897,2,2,2C96.923,124,122,98.879,122,68c0-16.096-7.367-31.867-19.698-42.473c1.257-1.257,9.112-9.113,9.112-9.113   C111.792,16.036,112,15.534,112,15l-0.15-0.762C111.538,13.485,110.813,13,110,13H76z"
   id="path8" />
	<linearGradient
   id="XMLID_9_"
   gradientUnits="userSpaceOnUse"
   x1="65.0986"
   y1="67.5"
   x2="121"
   y2="67.5">
		<stop
   offset="0"
   style="stop-color:#295AA6"
   id="stop11" />
		<stop
   offset="0.3319"
   style="stop-color:#27569F"
   id="stop13" />
		<stop
   offset="0.8192"
   style="stop-color:#224C8B"
   id="stop15" />
		<stop
   offset="1"
   style="stop-color:#1F4782"
   id="stop17" />
	</linearGradient>
	<path
   fill="url(#XMLID_9_)"
   d="M76,13c-0.553,0-1,0.448-1,1v34c0,0.404,0.244,0.769,0.617,0.924   c0.374,0.155,0.804,0.069,1.09-0.217c0,0,8.8-8.8,9.912-9.912C95.622,45.409,101,55.872,101,67c0,19.299-15.602,35-34.901,35   c-0.553,0-1,0.447-1,1v18c0,0.553,0.447,1,1,1C96.426,122,121,97.327,121,67c0-16.275-7.531-32.033-20.14-42.446   c1.293-1.293,9.847-9.847,9.847-9.847C110.898,14.516,111,14.26,111,14c0-0.129-0.025-0.259-0.076-0.383   C110.77,13.244,110.404,13,110,13H76z"
   id="path19" />
	<linearGradient
   id="XMLID_10_"
   gradientUnits="userSpaceOnUse"
   x1="98.1133"
   y1="117.6191"
   x2="74.4431"
   y2="-4.7358">
		<stop
   offset="0"
   style="stop-color:#3371CF"
   id="stop22" />
		<stop
   offset="0.5072"
   style="stop-color:#2A5FAE"
   id="stop24" />
		<stop
   offset="1"
   style="stop-color:#214B8A"
   id="stop26" />
	</linearGradient>
	<path
   fill="url(#XMLID_10_)"
   d="M99.405,24.595L110,14H76v34l10.541-10.541C96.077,44.125,102,55.16,102,67   c0,19.851-16.051,36-35.901,36v18C95.875,121,120,96.775,120,67C120,50.333,112.188,34.715,99.405,24.595z"
   id="path28" />
	<path
   fill="#5487D6"
   d="M119.986,66.536C119.697,96.064,95.695,120,66.099,120v1C95.875,121,120,96.775,120,67   C120,66.845,119.988,66.691,119.986,66.536z"
   id="path30" />
	<linearGradient
   id="XMLID_11_"
   gradientUnits="userSpaceOnUse"
   x1="78.252"
   y1="10.0327"
   x2="105.918"
   y2="49.3657">
		<stop
   offset="0"
   style="stop-color:#839DC4"
   id="stop33" />
		<stop
   offset="1"
   style="stop-color:#6789BA"
   id="stop35" />
	</linearGradient>
	<path
   fill="url(#XMLID_11_)"
   d="M112.608,39.821c-3.396-5.818-7.866-11.001-13.203-15.227L110,14H76v34l10.541-10.541   c2.815,1.968,4.681,3.352,6.807,5.991L112.608,39.821z"
   id="path37" />
	<linearGradient
   id="XMLID_12_"
   gradientUnits="userSpaceOnUse"
   x1="-6.25"
   y1="26.9766"
   x2="116.7498"
   y2="26.9766">
		<stop
   offset="0"
   style="stop-color:#90A5C4"
   id="stop40" />
		<stop
   offset="0.4719"
   style="stop-color:#D0E0FB"
   id="stop42" />
		<stop
   offset="0.8119"
   style="stop-color:#ACBAD5"
   id="stop44" />
		<stop
   offset="1"
   style="stop-color:#9DAAC5"
   id="stop46" />
	</linearGradient>
	<path
   fill="url(#XMLID_12_)"
   d="M99.951,25.048l-0.546,0.546c5.067,4.012,9.342,8.896,12.669,14.358l0.534-0.132   C109.33,34.206,105.044,29.19,99.951,25.048z M110,14H76v1h33L110,14z"
   id="path48" />
	<path
   opacity="0.2"
   d="M8,60c0,16.096,7.367,31.867,19.698,42.473c-1.257,1.258-9.112,9.113-9.112,9.113   C18.208,111.964,18,112.466,18,113l0.15,0.762C18.462,114.516,19.188,115,20,115h34c1.103,0,2-0.896,2-2V79   c0-0.811-0.484-1.537-1.234-1.848s-1.605-0.141-2.18,0.434c0,0-7.096,7.095-9.27,9.269C34.98,80.402,30,70.445,30,60   c0-18.748,15.208-34,33.901-34c1.103,0,2-0.897,2-2V6c0-1.103-0.897-2-2-2C33.077,4,8,29.122,8,60z"
   id="path50" />
	<linearGradient
   id="XMLID_13_"
   gradientUnits="userSpaceOnUse"
   x1="33.1445"
   y1="0.1035"
   x2="46.1445"
   y2="114.1035">
		<stop
   offset="0"
   style="stop-color:#295AA6"
   id="stop53" />
		<stop
   offset="0.3319"
   style="stop-color:#27569F"
   id="stop55" />
		<stop
   offset="0.8192"
   style="stop-color:#224C8B"
   id="stop57" />
		<stop
   offset="1"
   style="stop-color:#1F4782"
   id="stop59" />
	</linearGradient>
	<path
   fill="url(#XMLID_13_)"
   d="M54,113c0.553,0,1-0.447,1-1V78c0-0.404-0.244-0.77-0.617-0.924   c-0.374-0.154-0.804-0.068-1.09,0.217c0,0-8.8,8.8-9.912,9.912C34.378,80.591,29,70.129,29,59c0-19.299,15.602-35,34.901-35   c0.553,0,1-0.448,1-1V5c0-0.552-0.447-1-1-1C33.574,4,9,28.673,9,59c0,16.275,7.531,32.033,20.14,42.446   c-1.293,1.293-9.847,9.847-9.847,9.847C19.102,111.484,19,111.74,19,112c0,0.129,0.025,0.259,0.076,0.383   C19.23,112.756,19.596,113,20,113H54z"
   id="path61" />
	<linearGradient
   id="XMLID_14_"
   gradientUnits="userSpaceOnUse"
   x1="36.9512"
   y1="114"
   x2="36.9512"
   y2="6.7496">
		<stop
   offset="0"
   style="stop-color:#3371CF"
   id="stop64" />
		<stop
   offset="0.5072"
   style="stop-color:#2A5FAE"
   id="stop66" />
		<stop
   offset="1"
   style="stop-color:#214B8A"
   id="stop68" />
	</linearGradient>
	<path
   fill="url(#XMLID_14_)"
   d="M30.595,101.405L20,112h34V78L43.459,88.541C33.923,81.875,28,70.84,28,59   c0-19.851,16.051-36,35.901-36V5C34.125,5,10,29.224,10,59C10,75.666,17.812,91.285,30.595,101.405z"
   id="path70" />
	<path
   fill="#5081CC"
   d="M30.051,100.949l0.544-0.544c-12.664-10.026-20.438-25.45-20.581-41.941C10.012,58.644,10,58.82,10,59   C10,75.424,17.597,90.819,30.051,100.949z M20,112h34v-1H21L20,112z"
   id="path72" />
	<linearGradient
   id="XMLID_15_"
   gradientUnits="userSpaceOnUse"
   x1="53.4395"
   y1="2.8052"
   x2="12.9391"
   y2="80.3058">
		<stop
   offset="0"
   style="stop-color:#839DC4"
   id="stop75" />
		<stop
   offset="1"
   style="stop-color:#6789BA"
   id="stop77" />
	</linearGradient>
	<path
   fill="url(#XMLID_15_)"
   d="M12.238,74.308C10.775,69.402,10,64.253,10,59C10,29.224,34.125,5,63.901,5v18   C44.051,23,28,39.149,28,59c0,2.844,0.342,5.643,0.993,8.344L12.238,74.308z"
   id="path79" />
	<linearGradient
   id="XMLID_16_"
   gradientUnits="userSpaceOnUse"
   x1="81.5479"
   y1="-17.3154"
   x2="-3.4521"
   y2="59.4346">
		<stop
   offset="0"
   style="stop-color:#D0E0FB"
   id="stop82" />
		<stop
   offset="0.6438"
   style="stop-color:#ACBAD5"
   id="stop84" />
		<stop
   offset="1"
   style="stop-color:#9DAAC5"
   id="stop86" />
	</linearGradient>
	<path
   fill="url(#XMLID_16_)"
   d="M10,59c0,0.193,0.009,0.385,0.011,0.579C10.238,29.997,34.267,6,63.901,6V5   C34.125,5,10,29.224,10,59z"
   id="path88" />
<g
   id="g2568"
   transform="matrix(1.5948334,0,0,1.6421929,21.212888,26.2468)"><g
     style="display:inline"
     id="layer1"
     inkscape:label="Livello 1"><path
       transform="matrix(1.044734,0,0,0.727309,-9.459801e-2,13.01773)"
       d="M 45.078058,39.161163 A 19.622213,6.1871843 0 1 1 5.8336315,39.161163 A 19.622213,6.1871843 0 1 1 45.078058,39.161163 z"
       sodipodi:ry="6.1871843"
       sodipodi:rx="19.622213"
       sodipodi:cy="39.161163"
       sodipodi:cx="25.455845"
       id="path3254"
       style="opacity:0.22352941;fill:url(#radialGradient2315);fill-opacity:1;fill-rule:nonzero;stroke:none;stroke-width:1;stroke-linecap:butt;stroke-linejoin:miter;marker:none;marker-start:none;marker-mid:none;marker-end:none;stroke-miterlimit:4;stroke-dasharray:none;stroke-dashoffset:0;stroke-opacity:1;visibility:visible;display:inline;overflow:visible"
       sodipodi:type="arc" /><g
       transform="matrix(0.90733,0,0,0.926893,3.148753,4.02494)"
       id="g2375"><path
         style="fill:url(#radialGradient2381);fill-opacity:1;fill-rule:nonzero;stroke:#582a02;stroke-width:1.09044194;stroke-linecap:round;stroke-linejoin:miter;stroke-miterlimit:4;stroke-dasharray:none;stroke-opacity:1"
         d="M 24.634088,27.484359 C 24.396143,28.160024 24.816573,28.732977 25.498278,29.102669 C 26.902405,29.864133 28.424417,28.934712 28.86867,27.450302 C 29.660781,24.803578 28.630725,22.731601 26.426456,21.652728 C 22.215204,19.591543 17.966698,23.118298 16.507242,27.047094 C 14.302973,32.980896 18.723816,39.516516 24.871774,41.058894 C 34.085631,43.370436 42.984944,36.493467 45.023581,27.860767 C 47.953982,15.451859 38.466478,3.253309 26.28729,1.017909 C 17.470211,-0.60040077 7.180622,2.1474467 0.38712155,8.0646418 C 1.387121,18.064642 8.1391657,23.5 15.639166,27.5"
         id="path1314"
         sodipodi:nodetypes="cssssssscc" /><path
         style="opacity:0.49019608;fill:none;fill-opacity:1;fill-rule:nonzero;stroke:url(#linearGradient2383);stroke-width:1.09044194;stroke-linecap:round;stroke-linejoin:miter;stroke-miterlimit:4;stroke-dasharray:none;stroke-opacity:1"
         d="M 25.736223,28.023796 C 26.236223,28.523796 27.248597,28.397816 27.721669,27.306514 C 28.213229,26.172563 28.213229,23.878588 26.104374,22.7384 C 22.707412,20.901773 18.357211,23.783586 17.197475,28.364367 C 15.975321,33.191688 20.190499,38.955376 25.150364,40.033105 C 33.879487,41.929856 41.887182,35.907276 43.928086,27.55413 C 46.676145,16.306695 38.470015,4.8174055 26.28729,2.1308393 C 19.114881,0.54916101 8.1020654,2.6702759 1.4892564,8.6040784 C 2.6261826,17.473464 9.1110152,22.771135 15.758616,26.410962"
         id="path2215"
         sodipodi:nodetypes="csssssscc" /><path
         sodipodi:nodetypes="ccccccccccssccsccccccc"
         id="path2225"
         transform="matrix(1.102135,0,0,1.078873,-0.163946,-2.184653)"
         d="M 21.9375,4.8125 C 23.75216,9.4469652 24.65841,15.001142 22.84375,20.5625 C 24.009085,21.170774 25.573272,21.766726 26,22.375 C 28.258231,14.049247 27.3751,8.5157272 21.9375,4.8125 z M 11.999998,5.5000005 C 14.999998,9.0000011 19.107723,15.222706 19,21 C 20.381579,20.662281 21.236609,20.010388 22.499997,20.500003 C 21.999997,13.500003 18.499997,6.5000007 11.999998,5.5000005 z M 30.09375,7.59375 C 29.738138,13.779268 28.737075,18.240535 26.46875,22.875 C 26.998056,23.792805 27.781071,24.691802 27.5625,25.71875 C 27.522524,25.891976 27.447889,26.098661 27.34375,26.28125 C 27.337747,26.291426 27.318723,26.302292 27.3125,26.3125 L 26.625,28.34375 C 26.595284,28.355173 26.55892,28.390215 26.53125,28.40625 C 26.51735,28.414116 26.483164,28.430809 26.46875,28.4375 L 24.65625,29.84375 C 28.285569,30.307197 37.34159,27.061358 39.15625,21.5 C 35.477574,24.35274 32.576893,25.493118 28.71875,27.0625 C 31.440739,25.295611 37.359915,20.550751 36.90625,14.0625 C 34.406696,18.747636 31.166075,22.213825 28.21875,25.21875 C 30.543783,21.482212 34.6304,15.008894 30.09375,7.59375 z"
         style="fill:url(#linearGradient2234);fill-opacity:1;fill-rule:evenodd;stroke:none;stroke-width:0.25pt;stroke-linecap:butt;stroke-linejoin:miter;stroke-opacity:1" /><path
         style="opacity:0.57254902;fill:url(#linearGradient2387);fill-opacity:1;fill-rule:nonzero;stroke:none;stroke-width:0.99999962pt;stroke-linecap:butt;stroke-linejoin:miter;stroke-opacity:1"
         d="M 19.626245,1.2043425 C 12.732887,1.4704151 6.0951254,3.8237042 1,8.2616005 C 1.1919415,10.181016 4.4488631,17.670647 6.4488631,20.170647 C 17.948863,23.170647 19.639166,-1.5340571 43.139166,14.965943 C 39.639166,8.4659429 35.404576,4.0681142 27.904576,2.0681142 C 25.694597,1.4787865 21.924031,1.1156516 19.626245,1.2043425 z"
         id="path2234"
         sodipodi:nodetypes="ccccsc" /></g><path
       sodipodi:nodetypes="ccsc"
       id="path1911"
       d="M 19.568211,34.473509 C 25.285877,42.54425 43.816283,34.910365 42.378807,20.968433 C 44.302458,28.747032 41.022918,35.697299 35.731173,38.952137 C 30.170078,42.372646 22.676912,41.922534 19.568211,34.473509 z"
       style="opacity:0.5;fill:url(#radialGradient2810);fill-opacity:1;fill-rule:evenodd;stroke:none;stroke-width:1px;stroke-linecap:butt;stroke-linejoin:miter;stroke-opacity:1" /></g><g
     style="display:inline"
     inkscape:label="gear"
     id="layer2" /></g></svg>