<?xml version="1.0" encoding="UTF-8" standalone="no"?>
<!-- Generator: Adobe Illustrator 13.0.0, SVG Export Plug-In . SVG Version: 6.00 Build 14948)  -->
<svg
   xmlns:dc="http://purl.org/dc/elements/1.1/"
   xmlns:cc="http://creativecommons.org/ns#"
   xmlns:rdf="http://www.w3.org/1999/02/22-rdf-syntax-ns#"
   xmlns:svg="http://www.w3.org/2000/svg"
   xmlns="http://www.w3.org/2000/svg"
   xmlns:sodipodi="http://sodipodi.sourceforge.net/DTD/sodipodi-0.dtd"
   xmlns:inkscape="http://www.inkscape.org/namespaces/inkscape"
   version="1.0"
   id="svg2"
   sodipodi:version="0.32"
   inkscape:version="0.46"
   sodipodi:docbase="/home/ulisse/icone/Nautilus/scalable"
   sodipodi:docname="open-nautilus-logo.svg"
   x="0px"
   y="0px"
   width="56.693px"
   height="56.693px"
   viewBox="-19.916 -6.763 56.693 56.693"
   enable-background="new -19.916 -6.763 56.693 56.693"
   xml:space="preserve"
   inkscape:output_extension="org.inkscape.output.svg.inkscape"><metadata
   id="metadata47"><rdf:RDF><cc:Work
       rdf:about=""><dc:format>image/svg+xml</dc:format><dc:type
         rdf:resource="http://purl.org/dc/dcmitype/StillImage" /></cc:Work></rdf:RDF></metadata><defs
   id="defs45"><inkscape:perspective
     sodipodi:type="inkscape:persp3d"
     inkscape:vp_x="0 : 28.3465 : 1"
     inkscape:vp_y="0 : 1000 : 0"
     inkscape:vp_z="56.693001 : 28.3465 : 1"
     inkscape:persp3d-origin="28.3465 : 18.897667 : 1"
     id="perspective49" /></defs>
<path
   d="M -2.6079999,14.77 C -2.6079999,14.77 -8.6589999,14.77 -9.8969999,14.77 C -11.135,14.77 -12.281,16.053 -12.281,17.246 C -12.281,18.437 -12.281,19.493 -12.281,19.493 L -7.0099999,19.493 L -7.0099999,20.226 C -7.0099999,20.226 -13.932,20.226 -15.398,20.226 C -16.866,20.226 -17.668,21.601 -17.668,22.495 C -17.668,23.388 -17.668,27.33 -17.668,28.523 C -17.668,29.716 -16.613,30.874 -15.318,30.874 C -14.023,30.874 -13.015,30.874 -13.015,30.874 C -13.015,30.874 -13.015,30.266 -13.015,28.249 C -13.015,26.232 -11.089,25.292 -10.057,25.292 C -9.0249999,25.292 -4.9919999,25.292 -4.1199999,25.292 C -3.2499999,25.292 -2.1589999,24.439 -1.9199999,23.94 C -1.6139999,23.296 -1.3389999,23.42 -1.3389999,21.219 C -1.3389999,19.019 -1.3389999,14.77 -1.3389999,14.77 L -2.6079999,14.77 L -2.6079999,14.77 z M -9.9889999,18.208 C -10.572,18.208 -11.044,17.735 -11.044,17.154 C -11.044,16.571 -10.572,16.098 -9.9889999,16.098 C -9.4059999,16.098 -8.9339999,16.571 -8.9339999,17.154 C -8.9339999,17.735 -9.4069999,18.208 -9.9889999,18.208 z"
   id="path3"
   style="fill:#446785;stroke:#582a02;stroke-width:0.5;stroke-linejoin:round" />
<path
   d="M -1.1879999,24.306 C -1.5539999,24.902 -2.7919999,26.013 -4.1209999,26.013 C -5.2219999,26.013 -8.9799999,26.013 -9.7489999,26.013 C -10.517,26.013 -12.258,26.599 -12.258,28.523 C -12.258,30.448 -12.258,32.786 -12.258,33.866 C -12.258,34.941 -11.227,36.409 -9.7139999,36.409 C -8.2019999,36.409 -5.2669999,36.409 -4.0289999,36.409 C -2.7909999,36.409 -1.5519999,35.126 -1.5519999,33.933 C -1.5519999,32.74 -1.5519999,31.64 -1.5519999,31.64 L -6.9179999,31.64 L -6.9179999,30.996 C -6.9179999,30.996 0.46200003,30.996 1.333,30.996 C 2.205,30.996 3.854,30.264 3.854,28.475 C 3.854,26.931 3.854,22.165 3.854,22.165 L -1.1879999,24.306 z M -3.8469999,32.969 C -3.2639999,32.969 -2.7919999,33.442 -2.7919999,34.024 C -2.7919999,34.606 -3.2649999,35.079 -3.8469999,35.079 C -4.4289999,35.079 -4.9009999,34.606 -4.9009999,34.024 C -4.9009999,33.442 -4.4289999,32.969 -3.8469999,32.969 z"
   id="path5"
   style="fill:#d5ad42;stroke:#582a02;stroke-width:0.5;stroke-linejoin:round" />
<path
   enable-background="new    "
   d="M -13.581,30.306 L -15.318,30.306 C -16.339,30.306 -17.103,29.364 -17.103,28.522 L -17.103,22.496 C -17.103,21.885 -16.533,20.792 -15.399,20.792 C -15.399,20.792 -7.5189999,20.792 -7.0099999,20.792 C -6.5009999,20.792 -6.4439999,20.226 -6.4439999,20.226 L -6.4439999,19.494 C -6.4439999,19.494 -6.6119999,18.928 -7.0099999,18.928 C -7.4079999,18.928 -11.717,18.928 -11.717,18.928 L -11.717,17.246 C -11.717,16.318 -10.782,15.336 -9.8999999,15.336 L -2.6099999,15.336 L -1.9079999,15.336 L -1.9079999,21.22 C -1.9079999,22.805 -2.0479999,23.031 -2.2229999,23.315 C -2.2909999,23.426 -2.3609999,23.544 -2.4349999,23.698 C -2.5919999,24.025 -3.4929999,24.725 -4.1229999,24.725 L -10.057,24.725 C -11.497,24.725 -13.58,25.978 -13.58,28.248 L -13.581,30.306 L -13.581,30.306 z"
   id="path7"
   style="opacity:0.3;fill:none;stroke:#ffffff;stroke-width:0.5;stroke-linecap:round;stroke-linejoin:round" />
<path
   d="M -1.1879999,24.306 C -1.5539999,24.902 -2.7919999,26.013 -4.1209999,26.013 C -5.2219999,26.013 -8.9799999,26.013 -9.7489999,26.013 C -10.517,26.013 -12.258,26.599 -12.258,28.523 C -12.258,30.448 -12.258,32.786 -12.258,33.866 C -12.258,34.941 -11.227,36.409 -9.7139999,36.409 C -8.2019999,36.409 -5.2669999,36.409 -4.0289999,36.409 C -2.7909999,36.409 -1.5519999,35.126 -1.5519999,33.933 C -1.5519999,32.74 -1.5519999,31.64 -1.5519999,31.64 L -6.9179999,31.64 L -6.9179999,30.996 C -6.9179999,30.996 0.46200003,30.996 1.333,30.996 C 2.205,30.996 3.854,30.264 3.854,28.475 C 3.854,26.931 3.854,22.165 3.854,22.165 L -1.1879999,24.306 z M -3.8469999,32.969 C -3.2639999,32.969 -2.7919999,33.442 -2.7919999,34.024 C -2.7919999,34.606 -3.2649999,35.079 -3.8469999,35.079 C -4.4289999,35.079 -4.9009999,34.606 -4.9009999,34.024 C -4.9009999,33.442 -4.4289999,32.969 -3.8469999,32.969 z"
   id="path9"
   style="fill:#d5ad42;stroke:#582a02;stroke-width:0.5;stroke-linejoin:round" />
<path
   enable-background="new    "
   d="M -4.0299999,35.842 L -9.7139999,35.842 C -10.902,35.842 -11.691,34.652 -11.691,33.863 L -11.691,28.521 C -11.691,26.906 -10.159,26.578 -9.7489999,26.578 L -4.1199999,26.578 C -2.7179999,26.578 -1.3809999,25.547 -0.81199997,24.764 L 3.288,23.024 L 3.288,28.477 C 3.288,29.967 1.855,30.432 1.334,30.432 L -6.9159999,30.432 L -7.4829999,30.432 L -7.4829999,30.998 L -7.4829999,31.641 L -7.4829999,32.207 L -6.9169999,32.207 L -2.1209999,32.207 L -2.1209999,33.933 C -2.1209999,34.842 -3.1189999,35.842 -4.0299999,35.842 L -4.0299999,35.842 z"
   id="path11"
   style="opacity:0.3;fill:none;stroke:#ffffff;stroke-width:0.5;stroke-linecap:round;stroke-linejoin:round" />
<sodipodi:namedview
   fill="#babdb6"
   id="base"
   inkscape:pageopacity="0.0"
   inkscape:pageshadow="2"
   inkscape:document-units="px"
   inkscape:current-layer="svg2"
   inkscape:showpageshadow="false"
   inkscape:grid-bbox="true"
   inkscape:grid-points="false"
   inkscape:window-width="966"
   inkscape:window-height="713"
   inkscape:window-x="43"
   inkscape:window-y="45"
   borderopacity="1"
   showgrid="false"
   inkscape:cx="38.000903"
   inkscape:zoom="8"
   inkscape:cy="30.256657"
   pagecolor="#ffffff"
   bordercolor="#a8a8a8">
	<inkscape:grid
   id="GridFromPre046Settings"
   type="xygrid"
   originx="0px"
   originy="0px"
   spacingx="0.5px"
   spacingy="0.5px"
   color="#0000ff"
   empcolor="#0000ff"
   opacity="0.2"
   empopacity="0.4"
   empspacing="2" /></sodipodi:namedview>
<radialGradient
   id="path1314_1_"
   cx="-2329.894"
   cy="4817.3296"
   r="12.333"
   fx="-2330.4355"
   fy="4816.5923"
   gradientTransform="matrix(-1.2765,-2.52e-2,-2.37e-2,1.2541,-2846.0508,-6071.9673)"
   gradientUnits="userSpaceOnUse">
	<stop
   offset="0"
   style="stop-color:#7C2F03"
   id="stop15" />
	<stop
   offset="1"
   style="stop-color:#FF9730"
   id="stop17" />
</radialGradient>
<path
   id="path1314"
   sodipodi:nodetypes="cssssssscc"
   d="M 13.5,29.5 C 13.284,30.127 13.666,30.656 14.284,31 C 15.558,31.705 16.939,30.844 17.342,29.469 C 18.061,27.016 17.127,25.095 15.127,24.095 C 11.305,22.184 7.451,25.453 6.127,29.095 C 4.127,34.595 8.138,40.653 13.716,42.082 C 22.077,44.225 30.15,37.851 32,29.849 C 34.658,18.348 26.051,7.041 15,4.969 C 7,3.468 -2.3359999,6.016 -8.4999999,11.5 C -7.5929999,20.769 -1.4659999,25.807 5.339,29.515"
   style="fill:url(#path1314_1_);stroke:#582a02;stroke-width:0.75;stroke-linecap:round" />
<linearGradient
   id="path2215_1_"
   gradientUnits="userSpaceOnUse"
   x1="-1872.7793"
   y1="4220.4028"
   x2="-1846.7578"
   y2="4260.7671"
   gradientTransform="translate(-12,0)">
	<stop
   offset="0"
   style="stop-color:#FFFFFF"
   id="stop21" />
	<stop
   offset="1"
   style="stop-color:#FFFFFF"
   id="stop23" />
</linearGradient>
<path
   id="path2215"
   sodipodi:nodetypes="csssssscc"
   enable-background="new    "
   d="M 14.5,30 C 14.953,30.463 15.872,30.347 16.301,29.334 C 16.748,28.283 16.748,26.158 14.834,25.102 C 11.752,23.399 7.805,26.071 6.752,30.316 C 5.643,34.792 9.468,40.133 13.968,41.131 C 21.887,42.89 29.155,37.307 31.005,29.565 C 33.5,19.14 26.053,8.49 15,6 C 8.492,4.534 -1.4999999,6.5 -7.4999999,12 C -6.4679999,20.221 -0.58399997,25.131 5.447,28.504"
   style="opacity:0.49020003;fill:none;stroke:url(#path2215_1_);stroke-width:1.09039998;stroke-linecap:round" />
<linearGradient
   id="path2225_1_"
   gradientUnits="userSpaceOnUse"
   x1="-1291.6963"
   y1="4974.1089"
   x2="-1302.9465"
   y2="4989.5557"
   gradientTransform="translate(1313.6455,-4965.6763)">
	<stop
   offset="0"
   style="stop-color:#8C4104"
   id="stop27" />
	<stop
   offset="1"
   style="stop-color:#A04E0B"
   id="stop29" />
</linearGradient>
<path
   id="path2225"
   sodipodi:nodetypes="ccccccccccssccsccccccc"
   d="M 12.938,6.813 C 14.752,11.447 15.659,17.001 13.844,22.563 C 15.01,23.171 16.573,23.767 17,24.376 C 19.258,16.049 18.375,10.516 12.938,6.813 z M 3,7.5 C 6,11 10.108,17.223 10,23 C 11.381,22.662 12.237,22.01 13.5,22.5 C 13,15.5 9.5,8.5 3,7.5 z M 21.094,9.594 C 20.739,15.78 19.739,20.241 17.469,24.875 C 17.999,25.793 18.782,26.691 18.563,27.719 C 18.523,27.893 18.448,28.099 18.344,28.282 C 18.338,28.292 18.319,28.303 18.313,28.313 L 17.625,30.344 C 17.596,30.356 17.559,30.391 17.531,30.407 C 17.517,30.415 17.483,30.431 17.468,30.438 L 15.655,31.844 C 19.283,32.307 28.34,29.062 30.155,23.5 C 26.476,26.353 23.575,27.493 19.717,29.063 C 22.44,27.295 28.358,22.551 27.905,16.063 C 25.405,20.748 22.165,24.214 19.217,27.219 C 21.543,23.482 25.631,17.009 21.094,9.594 z"
   style="fill:url(#path2225_1_)" />
<linearGradient
   id="path2234_1_"
   gradientUnits="userSpaceOnUse"
   x1="-1241.7324"
   y1="5044.0708"
   x2="-1247.2631"
   y2="5024.0239"
   gradientTransform="matrix(0.9073,0,0,0.9269,1139.281,-4654.9634)">
	<stop
   offset="0"
   style="stop-color:#FFFFFF"
   id="stop33" />
	<stop
   offset="1"
   style="stop-color:#FFFFFF"
   id="stop35" />
</linearGradient>
<path
   id="path2234"
   sodipodi:nodetypes="ccccsc"
   enable-background="new    "
   d="M 8.956,5.141 C 2.702,5.388 -3.3209999,7.569 -7.9439999,11.683 C -7.7699999,13.461 -4.8139999,20.404 -2.9999999,22.721 C 7.434,25.502 8.968,2.603 30.29,17.897 C 27.116,11.872 23.272,7.796 16.467,5.942 C 14.463,5.396 11.041,5.059 8.956,5.141 z"
   style="opacity:0.57250001;fill:url(#path2234_1_)" />
<radialGradient
   id="path1911_1_"
   cx="-1827.9927"
   cy="3014.6187"
   r="11.683"
   fx="-1825.7617"
   fy="3010.1646"
   gradientTransform="matrix(-0.9746,0.7944,-0.4748,-0.5825,-327.056,3236.4744)"
   gradientUnits="userSpaceOnUse">
	<stop
   offset="0"
   style="stop-color:#7F3104"
   id="stop39" />
	<stop
   offset="1"
   style="stop-color:#7F3104"
   id="stop41" />
</radialGradient>
<path
   id="path1911"
   sodipodi:nodetypes="ccsc"
   enable-background="new    "
   d="M 7.568,34.474 C 13.285,42.545 31.816,34.911 30.38,20.969 C 32.304,28.748 29.025,35.698 23.732,38.953 C 18.17,42.374 10.677,41.922 7.568,34.474 z"
   style="opacity:0.5;fill:url(#path1911_1_)" />
<g
   id="layer2"
   inkscape:groupmode="layer"
   inkscape:label="gear">
</g>
</svg>